<svg width="29" height="29" viewBox="0 0 29 29" fill="none" xmlns="http://www.w3.org/2000/svg">
<path d="M26.25 0C25.2146 0 24.375 0.838477 24.375 1.875V6.21621C22.0371 2.96016 18.2461 0.9375 14.0625 0.9375C8.52539 0.9375 3.66738 4.47305 1.96758 9.73828C1.64895 10.7232 2.19006 11.782 3.1752 12.0984C4.16484 12.4207 5.21895 11.8751 5.53652 10.892C6.73242 7.17773 10.1602 4.6875 14.0625 4.6875C17.0215 4.6875 19.7027 6.12598 21.3516 8.4375H18.75C17.7146 8.4375 16.875 9.27598 16.875 10.3125C16.875 11.349 17.7146 12.1875 18.75 12.1875H26.25C27.2854 12.1875 28.125 11.349 28.125 10.3125V1.875C28.125 0.838477 27.2871 0 26.25 0ZM24.9492 16.0312C23.9578 15.7126 22.9055 16.2546 22.5879 17.2377C21.3926 20.9473 17.9648 23.4375 14.0625 23.4375C11.1035 23.4375 8.42285 21.999 6.77344 19.6875H9.375C10.4104 19.6875 11.25 18.849 11.25 17.8125C11.25 16.776 10.4104 15.9375 9.375 15.9375H1.875C0.839648 15.9375 0 16.776 0 17.8125V26.25C0 27.2865 0.839648 28.125 1.875 28.125C2.91035 28.125 3.75 27.2865 3.75 26.25V21.9088C6.08789 25.166 9.87891 27.1875 14.0098 27.1875C19.5439 27.1875 24.4043 23.652 26.1035 18.3867C26.4785 17.4023 25.9336 16.2949 24.9492 16.0312Z" fill="white"/>
</svg>
