<svg width="30" height="30" viewBox="0 0 30 30" fill="none" xmlns="http://www.w3.org/2000/svg">
<path d="M15.3779 15.9001H29.1568C29.6252 15.9001 30 15.5143 30 15.0321C30 14.5499 29.6252 14.1641 29.1568 14.1641H15.3779C14.9844 12.1517 13.2542 10.6279 11.1805 10.6279C9.10681 10.6279 7.37664 12.1517 6.98313 14.1641H0.849466C0.381008 14.1641 0.00624275 14.5499 0.00624275 15.0321C0.00624275 15.5143 0.381008 15.9001 0.849466 15.9001H6.98313C7.37664 17.9125 9.10681 19.4363 11.1805 19.4363C13.248 19.4363 14.9844 17.9189 15.3779 15.9001ZM8.58838 15.0321C8.58838 13.5597 9.75016 12.3639 11.1805 12.3639C12.6109 12.3639 13.7726 13.5597 13.7726 15.0321C13.7726 16.5045 12.6109 17.7003 11.1805 17.7003C9.75016 17.7003 8.58838 16.5045 8.58838 15.0321Z" fill="white"/>
<path d="M22.4485 5.27218H29.1568C29.6252 5.27218 30 4.88641 30 4.4042C30 3.92199 29.6252 3.53622 29.1568 3.53622H22.4485C22.055 1.52379 20.3248 0 18.2511 0C16.1774 0 14.4472 1.52379 14.0537 3.53622H0.849466C0.381008 3.53622 0.00624275 3.92199 0.00624275 4.4042C0.00624275 4.88641 0.381008 5.27218 0.849466 5.27218H14.06C14.4535 7.28461 16.1836 8.8084 18.2573 8.8084C20.331 8.8084 22.055 7.28461 22.4485 5.27218ZM15.659 4.4042C15.659 2.93185 16.8207 1.73596 18.2511 1.73596C19.6814 1.73596 20.8432 2.93185 20.8432 4.4042C20.8432 5.87655 19.6814 7.07244 18.2511 7.07244C16.8207 7.07244 15.659 5.87012 15.659 4.4042Z" fill="white"/>
<path d="M22.4485 26.4639H29.1568C29.6252 26.4639 30 26.0781 30 25.5959C30 25.1137 29.6252 24.7279 29.1568 24.7279H22.4485C22.055 22.7155 20.3248 21.1917 18.2511 21.1917C16.1774 21.1917 14.4472 22.7155 14.0537 24.7279H0.843224C0.374765 24.7279 0 25.1137 0 25.5959C0 26.0781 0.374765 26.4639 0.843224 26.4639H14.06C14.4535 28.4763 16.1836 30.0001 18.2573 30.0001C20.331 30.0001 22.055 28.4828 22.4485 26.4639ZM15.659 25.5959C15.659 24.1236 16.8207 22.9277 18.2511 22.9277C19.6814 22.9277 20.8432 24.1236 20.8432 25.5959C20.8432 27.0683 19.6814 28.2641 18.2511 28.2641C16.8207 28.2641 15.659 27.0683 15.659 25.5959Z" fill="white"/>
</svg>
